<svg width="23" height="23" viewBox="0 0 23 23" fill="none" xmlns="http://www.w3.org/2000/svg">
<path fill-rule="evenodd" clip-rule="evenodd" d="M14.1335 0C13.6887 0 13.2622 0.176692 12.9477 0.491206C12.6331 0.80572 12.4565 1.23229 12.4565 1.67708V5.98958C12.4565 6.91533 13.2078 7.66667 14.1335 7.66667H21.321C21.7658 7.66667 22.1924 7.48997 22.5069 7.17546C22.8214 6.86095 22.9981 6.43437 22.9981 5.98958V1.67708C22.9981 1.23229 22.8214 0.80572 22.5069 0.491206C22.1924 0.176692 21.7658 0 21.321 0L14.1335 0ZM14.1335 9.58333C13.6887 9.58333 13.2622 9.76003 12.9477 10.0745C12.6331 10.3891 12.4565 10.8156 12.4565 11.2604V21.3229C12.4565 22.2496 13.2078 23 14.1335 23H21.321C21.7658 23 22.1924 22.8233 22.5069 22.5088C22.8214 22.1943 22.9981 21.7677 22.9981 21.3229V11.2604C22.9981 10.8156 22.8214 10.3891 22.5069 10.0745C22.1924 9.76003 21.7658 9.58333 21.321 9.58333H14.1335ZM0.00195312 1.67708C0.00195312 0.751333 0.752328 0 1.67904 0H8.86654C9.79229 0 10.5436 0.751333 10.5436 1.67708V11.7396C10.5436 12.1844 10.3669 12.6109 10.0524 12.9255C9.7379 13.24 9.31133 13.4167 8.86654 13.4167H1.67904C1.23425 13.4167 0.807674 13.24 0.493159 12.9255C0.178645 12.6109 0.00195313 12.1844 0.00195312 11.7396V1.67708ZM1.67904 15.3333C1.23425 15.3333 0.807674 15.51 0.493159 15.8245C0.178645 16.1391 0.00195313 16.5656 0.00195312 17.0104V21.3229C0.00195312 22.2487 0.752328 23 1.67904 23H8.86654C9.31133 23 9.7379 22.8233 10.0524 22.5088C10.3669 22.1943 10.5436 21.7677 10.5436 21.3229V17.0104C10.5436 16.5656 10.3669 16.1391 10.0524 15.8245C9.7379 15.51 9.31133 15.3333 8.86654 15.3333H1.67904Z" fill="#4D5154"/>
</svg>
