<svg width="65" height="65" viewBox="0 0 65 65" fill="none" xmlns="http://www.w3.org/2000/svg">
<rect x="0.32959" y="0.330044" width="63.9902" height="63.9902" rx="31.9951" fill="#A88ADD"/>
<path d="M32.5294 33.313L40.7782 28.1576L32.5294 23.3302L24.2807 28.1576L32.5294 33.313ZM42.5123 28.345V38.3279C42.5123 38.859 42.3092 39.3277 41.903 39.7339C41.5281 40.1401 41.075 40.3432 40.5438 40.3432H24.515C23.9839 40.3432 23.5152 40.1401 23.109 39.7339C22.7341 39.3277 22.5466 38.859 22.5466 38.3279V28.345C22.5466 27.5639 22.8591 26.9859 23.484 26.6109L32.5294 21.3149L41.5749 26.6109C42.1998 26.9859 42.5123 27.5639 42.5123 28.345Z" fill="white" fill-opacity="0.87"/>
</svg>
