<svg width="65" height="65" viewBox="0 0 65 65" fill="none" xmlns="http://www.w3.org/2000/svg">
<rect x="0.330322" y="0.330048" width="63.9902" height="63.9902" rx="31.9951" fill="#9C27B0"/>
<path d="M33.7483 31.3446C34.2794 31.3446 34.7325 31.1415 35.1074 30.7353C35.5136 30.3291 35.7167 29.8604 35.7167 29.3293C35.7167 28.7981 35.5136 28.3294 35.1074 27.9232C34.7325 27.517 34.2794 27.3139 33.7483 27.3139H30.5144V31.3446H33.7483ZM33.5139 23.3302C35.1699 23.3302 36.5759 23.9238 37.732 25.1112C38.9193 26.2672 39.513 27.6733 39.513 29.3293C39.513 30.9853 38.9193 32.4069 37.732 33.5942C36.5759 34.7503 35.1699 35.3283 33.5139 35.3283H30.5144V41.3274H26.5306V23.3302H33.5139Z" fill="white" fill-opacity="0.87"/>
</svg>
