<svg width="65" height="65" viewBox="0 0 65 65" fill="none" xmlns="http://www.w3.org/2000/svg">
<rect x="0.329834" y="0.330048" width="63.9902" height="63.9902" rx="31.9951" fill="#1565C0"/>
<path d="M29.5294 33.313C30.2168 33.313 31.0136 33.4068 31.9197 33.5942C30.3262 34.4691 29.5294 35.6252 29.5294 37.0625V39.3121H22.5461V36.8281C22.5461 36.1095 22.9679 35.4689 23.8115 34.9065C24.6864 34.3441 25.6394 33.9379 26.6705 33.688C27.7016 33.438 28.6546 33.313 29.5294 33.313ZM33.4194 35.094C34.6693 34.5941 35.8722 34.3441 37.0283 34.3441C38.1843 34.3441 39.3873 34.5941 40.6371 35.094C41.8869 35.5939 42.5118 36.2501 42.5118 37.0625V39.3121H31.5447V37.0625C31.5447 36.2501 32.1696 35.5939 33.4194 35.094ZM31.6385 30.4541C31.0448 31.0478 30.3418 31.3446 29.5294 31.3446C28.717 31.3446 28.014 31.0478 27.4204 30.4541C26.8267 29.8604 26.5299 29.1574 26.5299 28.345C26.5299 27.5327 26.8267 26.8296 27.4204 26.236C28.014 25.6423 28.717 25.3455 29.5294 25.3455C30.3418 25.3455 31.0448 25.6423 31.6385 26.236C32.2321 26.8296 32.529 27.5327 32.529 28.345C32.529 29.1574 32.2321 29.8604 31.6385 30.4541ZM38.7624 31.6258C38.2937 32.0945 37.7157 32.3288 37.0283 32.3288C36.3409 32.3288 35.7472 32.0945 35.2473 31.6258C34.7786 31.1259 34.5443 30.5322 34.5443 29.8448C34.5443 29.1574 34.7786 28.5638 35.2473 28.0638C35.7472 27.5639 36.3409 27.3139 37.0283 27.3139C37.7157 27.3139 38.2937 27.5639 38.7624 28.0638C39.2623 28.5638 39.5123 29.1574 39.5123 29.8448C39.5123 30.5322 39.2623 31.1259 38.7624 31.6258Z" fill="white" fill-opacity="0.87"/>
</svg>
