<svg width="17" height="21" viewBox="0 0 17 21" fill="none" xmlns="http://www.w3.org/2000/svg">
<path d="M12.6016 15.3462V9.34708C12.6016 8.06603 12.2422 7.00369 11.5236 6.16007C10.805 5.2852 9.83635 4.84777 8.61779 4.84777C7.39923 4.84777 6.43063 5.2852 5.71199 6.16007C4.99335 7.00369 4.63403 8.06603 4.63403 9.34708V15.3462H12.6016ZM14.6169 14.3151L16.6322 16.3304V17.3146H0.603393V16.3304L2.61871 14.3151V9.34708C2.61871 7.78482 3.00927 6.42565 3.79041 5.26958C4.60278 4.11351 5.71199 3.36362 7.11802 3.01993V2.31691C7.11802 1.91072 7.25862 1.56702 7.53983 1.28582C7.82104 0.973366 8.18036 0.817139 8.61779 0.817139C9.05522 0.817139 9.41454 0.973366 9.69575 1.28582C9.97696 1.56702 10.1176 1.91072 10.1176 2.31691V3.01993C11.5236 3.36362 12.6172 4.11351 13.3983 5.26958C14.2107 6.42565 14.6169 7.78482 14.6169 9.34708V14.3151ZM10.0238 19.7517C9.61764 20.1267 9.14896 20.3142 8.61779 20.3142C8.08662 20.3142 7.61794 20.1267 7.21176 19.7517C6.80557 19.3456 6.60247 18.8769 6.60247 18.3457H10.6331C10.6331 18.8769 10.43 19.3456 10.0238 19.7517Z" fill="black" fill-opacity="0.87"/>
</svg>
